<?xml version="1.0" encoding="iso-8859-1"?>
<!-- Generator: Adobe Illustrator 19.0.0, SVG Export Plug-In . SVG Version: 6.00 Build 0)  -->
<svg version="1.1" id="Layer_1" xmlns="http://www.w3.org/2000/svg" xmlns:xlink="http://www.w3.org/1999/xlink" x="0px" y="0px"
	 viewBox="0 0 344.445 344.445" style="enable-background:new 0 0 344.445 344.445;" xml:space="preserve">
<g>
	<g>
		<g>
			<path d="M254.556,221.867l-43.444-9.656v-6.656v-7.072c16.789-12.117,27.778-31.794,27.778-54.039v-22.222h5.556V88.889h-5.556
				V77.383c18.822-2.706,33.333-18.933,33.333-38.494C272.221,17.444,254.772,0,233.333,0c-11.956,0-23.244,5.617-30.556,14.939
				C195.466,5.617,184.177,0,172.221,0s-23.244,5.617-30.556,14.939C134.356,5.617,123.067,0,111.111,0
				C89.672,0,72.221,17.444,72.221,38.889c0,19.561,14.511,35.789,33.333,38.494v11.506H100v33.333h5.556v22.222
				c0,22.244,10.989,41.922,27.778,54.039v7.072v6.656l-43.444,9.65c-33.3,7.406-56.556,36.389-56.556,70.506v52.078h277.778
				v-52.078C311.111,258.25,287.856,229.267,254.556,221.867z M83.333,38.889c0-15.317,12.461-27.778,27.778-27.778
				c9.828,0,19.017,5.322,23.983,13.894l1.606,2.772h9.928l1.606-2.772c4.972-8.572,14.161-13.894,23.989-13.894
				s19.017,5.322,23.983,13.894l1.606,2.772h9.928l1.606-2.772c4.972-8.572,14.161-13.894,23.989-13.894
				c15.317,0,27.778,12.461,27.778,27.778c0,15.317-12.461,27.778-27.778,27.778h-5.556v22.222H116.666V66.667h-5.556
				C95.794,66.667,83.333,54.206,83.333,38.889z M111.111,100h122.222v11.111H111.111V100z M116.666,144.444v-22.222h111.111v22.222
				c0,30.633-24.922,55.556-55.556,55.556C141.588,200,116.666,175.078,116.666,144.444z M200,204.972v0.583v5.556h-5.556
				c-9.189,0-16.667,7.478-16.667,16.667h-11.111c0-9.189-7.478-16.667-16.667-16.667h-5.556v-5.556v-0.583h0.001
				c8.467,3.9,17.856,6.139,27.778,6.139S191.533,208.872,200,204.972z M111.111,333.335H100v-22.222H88.888v22.222H44.444v-40.968
				c0-28.861,19.678-53.394,47.85-59.65l47.194-10.494H150c3.067,0,5.556,2.489,5.556,5.556v11.111h11.111v12.906l-55.556,22.222
				V333.335z M300,333.333h-44.444v-22.222h-11.111v22.222H122.221v-51.794l55.556-22.222v-20.428h11.111v-11.111
				c0-3.067,2.489-5.556,5.556-5.556h10.511l47.194,10.494c28.172,6.256,47.85,30.789,47.85,59.65V333.333z"/>
			<circle cx="138.889" cy="294.444" r="5.556"/>
			<circle cx="138.889" cy="316.667" r="5.556"/>
		</g>
	</g>
</g>
</svg>
