<?xml version="1.0" encoding="utf-8"?>
<!-- Svg Vector Icons : http://www.onlinewebfonts.com/icon -->
<!DOCTYPE svg PUBLIC "-//W3C//DTD SVG 1.1//EN" "http://www.w3.org/Graphics/SVG/1.1/DTD/svg11.dtd">
<svg version="1.1" xmlns="http://www.w3.org/2000/svg" xmlns:xlink="http://www.w3.org/1999/xlink" width="16" height="16" fill="#cdd1d5" x="0px" y="0px" viewBox="0 0 1000 1000" enable-background="new 0 0 1000 1000" xml:space="preserve">
<metadata> Svg Vector Icons : http://www.onlinewebfonts.com/icon </metadata>
<g><g transform="translate(0.000000,512.000000) scale(0.100000,-0.100000)"><path d="M4749.1,4995.3c-273.8-55.5-509.3-181.9-718.1-384.9l-139.8-136l-111.1,38.3c-164.7,57.4-450,57.4-622.3-1.9c-335.1-114.9-601.3-386.8-716.1-731.5c-47.9-143.6-47.9-430.8,0-574.5c116.8-352.3,396.4-630,733.4-733.4l137.9-42.1l5.7-358.1l5.7-356.1l57.5-72.8c124.5-151.3,15.3-141.7,1618-141.7c1602.7,0,1493.6-9.6,1618,141.7l57.4,72.8l5.7,358.1l5.7,358.1l124.5,34.5c239.4,68.9,455.8,229.8,597.4,440.4c136,203,185.7,360,185.7,585.9c0,467.2-302.5,867.4-775.5,1026.4c-143.6,47.9-444.2,46-601.3-3.8l-112.9-36.4l-137.9,134C5631.9,4939.7,5181.9,5081.4,4749.1,4995.3z M5233.6,4696.5c241.3-51.7,471-203,620.4-405.9c141.7-193.4,162.8-201.1,354.2-105.3c99.6,49.8,151.3,63.2,277.7,68.9c486.4,24.9,838.7-329.3,806.2-808.1c-5.7-84.2-24.9-193.4-40.2-241.3c-72.8-203-285.3-394.5-499.8-450c-76.6-19.2-204.9-28.7-396.4-28.7h-283.4V2573v-153.2h153.2h153.2v-306.4v-306.4H5000H3621.3v306.4v306.4h153.2h153.2v151.3v151.3l-329.4,7.7c-271.9,7.7-346.6,15.3-421.3,46c-289.1,118.7-448.1,348.5-469.1,672.1c-19.2,270,91.9,517,296.8,664.4c220.2,160.8,549.6,191.5,790.8,70.9c185.7-93.8,208.7-86.2,350.4,107.2c143.6,197.2,360,342.8,595.5,400.2C4864,4721.4,5103.4,4723.3,5233.6,4696.5z"/><path d="M4234.1,2573v-153.2h153.2h153.2V2573v153.2h-153.2h-153.2V2573z"/><path d="M4846.8,2573v-153.2H5000h153.2V2573v153.2H5000h-153.2V2573z"/><path d="M5459.6,2573v-153.2h153.2h153.2V2573v153.2h-153.2h-153.2V2573z"/><path d="M3161.7,1336c0-174.2,13.4-214.5,95.7-304.5c46-47.9,57.4-84.3,76.6-229.8c55.5-434.7,210.6-827.2,450-1137.4c44-59.4,95.7-120.7,113-134c23-21.1,30.6-63.2,30.6-199.2c0-168.5-1.9-176.2-90-342.8c-145.5-275.7-137.9-270-723.8-518.9c-283.4-120.6-564.9-233.6-622.3-252.8c-197.2-63.2-574.4-220.2-781.2-323.6c-534.2-268.1-865.5-566.8-1037.8-934.5c-101.5-214.5-114.9-346.6-114.9-1080V-4780h153.2h153.2v675.9c0,741,5.7,792.8,114.9,1009.1c32.6,63.2,118.7,180,193.4,256.6c273.8,289.1,666.4,505.5,1382.5,760.2C2930-1946,3851.1-1542,3900.9-1488.4l44,47.9l82.3-47.9c46-24.9,204.9-114.9,354.2-199.2c149.4-84.2,271.9-157,271.9-162.8c1.9-5.7-84.3-55.5-187.7-111.1c-122.5-67-197.2-118.7-210.6-149.3c-15.3-34.5-21.1-430.8-21.1-1357.6V-4780h153.2h153.2v1260V-2262l720,392.5c396.4,216.4,737.2,400.2,758.3,409.8c28.7,15.3,45.9,7.6,80.4-30.7c49.8-53.6,968.9-453.8,1380.6-601.2c693.2-248.9,1078-461.5,1344.2-743c72.8-74.7,157-187.7,191.5-252.7c114.9-214.5,120.6-270,120.6-1016.8V-4780h153.2h153.2v660.6c0,524.7-5.7,693.2-30.6,810c-95.7,480.6-459.6,869.3-1122.1,1202.5c-206.8,103.4-584,260.4-781.3,323.6c-57.4,19.2-337,132.1-622.3,252.8c-585.9,247-576.4,241.3-723.8,518.9c-88.1,166.6-90,174.3-90,342.8c0,135.9,7.7,178.1,30.6,199.2c47.9,38.3,189.6,227.9,258.5,344.7c149.4,250.8,264.3,605.1,304.5,932.5c17.2,141.7,28.7,176.2,74.7,224c84.2,90,97.7,130.2,97.7,304.5v164.7H6685h-153.2V1380c0-105.3-5.7-128.3-49.8-168.5c-78.5-72.8-97.7-128.3-109.1-323.6c-23-348.5-157-737.2-348.5-1005.3c-499.8-702.7-1547.2-702.7-2048.9-1.9C3782.2,152.6,3650,535.6,3627.1,887.9c-11.5,195.3-30.6,250.8-109.1,323.6c-44,40.2-49.8,63.2-49.8,168.5v120.6h-153.2h-153.2V1336z M5844.4-1042.2c30.6-68.9,49.8-132.1,42.1-139.8c-9.6-7.7-214.5-122.6-459.6-254.7l-444.2-243.2l-63.2,32.5c-130.2,67-773.6,434.7-796.6,457.6c-19.1,17.2-13.4,46,34.5,147.4c30.6,70.9,61.3,162.8,68.9,206.8c7.7,47.9,21.1,74.7,34.5,68.9c356.2-159,635.7-208.7,940.2-166.6c166.6,23,407.9,97.6,497.8,151.3l57.5,36.4l15.3-86.2C5779.3-877.6,5811.9-973.3,5844.4-1042.2z"/><path d="M4846.8-2788.6v-153.2H5000h153.2v153.2v153.2H5000h-153.2V-2788.6z"/><path d="M4846.8-3401.3v-153.2H5000h153.2v153.2v153.2H5000h-153.2V-3401.3z"/><path d="M4846.8-4014.1v-153.2H5000h153.2v153.2v153.2H5000h-153.2V-4014.1z"/><path d="M2089.4-4473.6V-4780h153.2h153.2v306.4v306.4h-153.2h-153.2V-4473.6z"/><path d="M7604.2-4473.6V-4780h153.2h153.2v306.4v306.4h-153.2h-153.2V-4473.6z"/><path d="M4846.8-4626.8V-4780H5000h153.2v153.2v153.2H5000h-153.2V-4626.8z"/></g></g>
</svg>